<svg xmlns="http://www.w3.org/2000/svg" viewBox="0 0 253.45 253.45"><defs><style>.a{fill:#c6ced8;}</style></defs><title>instagram-icon</title><path class="a" d="M693,328.28A126.72,126.72,0,1,0,819.72,455,126.72,126.72,0,0,0,693,328.28Zm0,241.93A115.21,115.21,0,1,1,808.2,455,115.2,115.2,0,0,1,693,570.21Zm37.81-161.9h-8.89a4.46,4.46,0,0,0-4.45,4.45v8.89a4.46,4.46,0,0,0,4.45,4.45h8.89a4.46,4.46,0,0,0,4.45-4.45v-8.89A4.46,4.46,0,0,0,730.8,408.31Zm-40,27.52a16.84,16.84,0,0,0-8.77,2.5,8.36,8.36,0,0,1,2.51-.41,8.6,8.6,0,1,1-8.59,8.6,8.47,8.47,0,0,1,.42-2.51,16.76,16.76,0,0,0-2.51,8.77A17,17,0,1,0,690.78,435.83ZM726.91,395H654.65A21.68,21.68,0,0,0,633,416.65v72.27a21.68,21.68,0,0,0,21.68,21.68h72.27a21.67,21.67,0,0,0,21.68-21.68V416.65A21.68,21.68,0,0,0,726.91,395Zm-36.13,84.5a26.68,26.68,0,0,1-26.68-26.68c0-.44,0-0.88,0-1.32,0-.18,0-0.36,0-0.54s0-.5.06-0.75,0.06-.48.09-0.72,0-.36.07-0.54,0.09-.58.14-0.86l0.06-.36q0.1-.5.21-1l0-.18A26.67,26.67,0,0,1,670.93,435h0a26.67,26.67,0,0,1,39.77,0h0a26.69,26.69,0,0,1,6.09,11.53l0,0.19q0.12,0.49.21,1c0,0.12,0,.24.07,0.36,0.05,0.28.1,0.57,0.14,0.86s0,0.36.07,0.54,0.06,0.48.09,0.72,0,0.5.06,0.75,0,0.36,0,.55c0,0.44,0,.88,0,1.32A26.68,26.68,0,0,1,690.78,479.46ZM739.7,435H721.57A35.54,35.54,0,0,0,660,435H641.86V416.65a12.8,12.8,0,0,1,12.79-12.79h72.27a12.8,12.8,0,0,1,12.79,12.79V435Z" transform="translate(-566.28 -328.28)"/></svg>