<?xml version="1.0" encoding="iso-8859-1"?>
<!DOCTYPE svg PUBLIC "-//W3C//DTD SVG 1.1//EN" "http://www.w3.org/Graphics/SVG/1.1/DTD/svg11.dtd">
<svg xmlns="http://www.w3.org/2000/svg" xmlns:xlink="http://www.w3.org/1999/xlink" version="1.1" viewBox="0 0 273.924 273.924" enable-background="new 0 0 273.924 273.924" width="512px" height="512px">
  <g>
    <path d="m162.887,29h-19.925v-17h21.525c3.313,0 6-2.687 6-6s-2.687-6-6-6h-55.051c-3.313,0-6,2.687-6,6s2.687,6 6,6h21.525v17h-19.925c-46.875,0-85.011,38.136-85.011,85.011v82.427c0,26.625 21.661,48.286 48.287,48.286h17.661c-10.582,6.816-20.335,12.772-29.476,17.988-2.878,1.643-3.88,5.307-2.237,8.185 1.106,1.94 3.132,3.027 5.217,3.027 1.008,0 2.029-0.254 2.968-0.79 13.598-7.759 28.452-17.064 45.365-28.411h46.302c16.913,11.347 31.767,20.652 45.365,28.411 0.938,0.535 1.96,0.79 2.968,0.79 2.084,0 4.11-1.087 5.217-3.027 1.643-2.878 0.641-6.542-2.237-8.185-9.141-5.216-18.894-11.172-29.476-17.988h17.661c26.626,0 48.287-21.661 48.287-48.286v-82.427c0.001-46.875-38.135-85.011-85.01-85.011zm73.011,167.438c0,20.008-16.278,36.286-36.287,36.286h-125.297c-20.009,0-36.287-16.278-36.287-36.286v-82.427c7.10543e-15-40.259 32.753-73.011 73.01-73.011h51.85c40.258,0 73.011,32.752 73.011,73.011v82.427z" fill="#464646"/>
    <path d="M187.47,81H86.454c-14.878,0-26.981,12.104-26.981,26.982v49.991c0,3.313,2.687,6,6,6h142.979c3.313,0,6-2.687,6-6v-49.991   C214.451,93.104,202.348,81,187.47,81z M202.451,151.973H71.473v-43.991C71.473,99.721,78.194,93,86.454,93H187.47   c8.261,0,14.981,6.721,14.981,14.982V151.973z" fill="#464646"/>
    <circle cx="75.799" cy="211.549" r="11.161" fill="#464646"/>
    <circle cx="197.291" cy="211.549" r="11.161" fill="#464646"/>
    <path d="m112.911,67h48.102c3.313,0 6-2.687 6-6s-2.687-6-6-6h-48.102c-3.313,0-6,2.687-6,6s2.687,6 6,6z" fill="#464646"/>
  </g>
</svg>
