<?xml version="1.0" encoding="iso-8859-1"?>
<!-- Generator: Adobe Illustrator 19.0.0, SVG Export Plug-In . SVG Version: 6.00 Build 0)  -->
<svg xmlns="http://www.w3.org/2000/svg" xmlns:xlink="http://www.w3.org/1999/xlink" version="1.1" id="Capa_1" x="0px" y="0px" viewBox="0 0 57 57" style="enable-background:new 0 0 57 57;" xml:space="preserve" width="512px" height="512px">
<g>
	<g>
		<path d="M44,22v2h2v7.54l-2.137,1.832c-1.009-2.328-7.603-3.05-11.863-3.273V27h8c0.279,0,0.546-0.117,0.734-0.322    c0.189-0.205,0.285-0.48,0.263-0.758l-2-25C38.955,0.4,38.521,0,38,0H19c-0.521,0-0.955,0.4-0.997,0.92l-2,25    c-0.022,0.278,0.073,0.553,0.263,0.758C16.454,26.883,16.721,27,17,27h8v3.099c-4.271,0.223-10.885,0.948-11.87,3.29l-2.145-1.839    v-7.54c0-0.003-0.002-0.006-0.002-0.01H13v-2H7v2h1.987c0,0.003-0.002,0.006-0.002,0.01v8c0,0.292,0.128,0.569,0.35,0.759l3.5,3    c0.05,0.043,0.11,0.065,0.165,0.096V40c0,0.552,0.447,1,1,1h11v6.245c-3.231,0.41-5.999,1.347-6.775,2.869    C16.947,50.459,16,51.616,16,53c0,1.654,1.346,3,3,3s3-1.346,3-3c0-1.057-0.552-1.983-1.38-2.518C21.784,49.835,24.575,49,29,49    c3.865,0,6.477,0.637,7.855,1.229C35.767,50.681,35,51.751,35,53c0,1.654,1.346,3,3,3s3-1.346,3-3    c0-0.898-0.405-1.696-1.032-2.246c-0.271-2.073-3.884-3.243-7.968-3.618V41h11c0.553,0,1-0.448,1-1v-4.153    c0.05-0.029,0.105-0.049,0.15-0.088l3.5-3C47.872,32.569,48,32.292,48,32v-8h2v-2H44z M19.923,2h17.154l1.84,23H31h-5h-7.917    L19.923,2z M27,30v-3h3v3H27z M19,54c-0.552,0-1-0.449-1-1c0-0.544,0.438-0.985,0.98-0.996c0.007,0,0.012,0.004,0.019,0.004    c0.007,0,0.013-0.004,0.02-0.004C19.562,52.015,20,52.455,20,53C20,53.551,19.552,54,19,54z M38,54c-0.552,0-1-0.449-1-1    s0.448-1,1-1s1,0.449,1,1S38.552,54,38,54z M30,47h-3v-6h3V47z M42,39H31h-5H15v-4.902C15.606,33.363,20.164,32,28.5,32    s12.895,1.363,13.5,2.098V39z" fill="#464646"/>
		<path d="M28.5,50c-1.93,0-3.5,1.57-3.5,3.5s1.57,3.5,3.5,3.5s3.5-1.57,3.5-3.5S30.43,50,28.5,50z M28.5,55    c-0.827,0-1.5-0.673-1.5-1.5s0.673-1.5,1.5-1.5s1.5,0.673,1.5,1.5S29.327,55,28.5,55z" fill="#464646"/>
		<rect x="24" y="6" width="9" height="2" fill="#464646"/>
		<rect x="24" y="12" width="9" height="2" fill="#464646"/>
		<rect x="24" y="19" width="9" height="2" fill="#464646"/>
	</g>
</g>
<g>
</g>
<g>
</g>
<g>
</g>
<g>
</g>
<g>
</g>
<g>
</g>
<g>
</g>
<g>
</g>
<g>
</g>
<g>
</g>
<g>
</g>
<g>
</g>
<g>
</g>
<g>
</g>
<g>
</g>
</svg>
